<svg xmlns="http://www.w3.org/2000/svg" width="14.651" height="14" viewBox="0 0 14.651 14">
  <path id="Path_19" data-name="Path 19" d="M0,6.626A1.523,1.523,0,0,1,.495,5.46,1.816,1.816,0,0,1,1.782,5a1.762,1.762,0,0,1,1.259.453,1.6,1.6,0,0,1,.495,1.216A1.489,1.489,0,0,1,3.055,7.8a1.819,1.819,0,0,1-1.3.467H1.739A1.731,1.731,0,0,1,.481,7.8,1.567,1.567,0,0,1,0,6.626ZM.184,19V9.554H3.323V19Zm4.879,0H8.2V13.725a1.841,1.841,0,0,1,.714-1.577,1.536,1.536,0,0,1,1.011-.332q1.584,0,1.584,2.135V19h3.139V13.584a4.551,4.551,0,0,0-.99-3.175,3.377,3.377,0,0,0-2.616-1.082A3.209,3.209,0,0,0,8.2,10.9v.028H8.188L8.2,10.9V9.554H5.063q.028.453.028,2.814T5.063,19Z" transform="translate(0 -5)" fill="#999"/>
</svg>
